<svg width="32" height="32" viewBox="0 0 32 32" fill="none" xmlns="http://www.w3.org/2000/svg">
<path d="M7.97754 27.4499V27.7526C7.97754 23.2311 11.6412 19.5674 16.1628 19.5674C20.6844 19.5674 24.3481 23.2311 24.3481 27.7526V27.6955M30.3271 16.1636C30.3271 23.9859 23.9859 30.3271 16.1636 30.3271C8.34125 30.3271 2 23.9859 2 16.1636C2 8.34125 8.34125 2 16.1636 2C23.9859 2 30.3271 8.34125 30.3271 16.1636ZM21.0009 13.1756C21.0009 15.8475 18.8349 18.0134 16.1631 18.0134C13.4912 18.0134 11.3253 15.8475 11.3253 13.1756C11.3253 10.5038 13.4912 8.3378 16.1631 8.3378C18.8349 8.3378 21.0009 10.5038 21.0009 13.1756Z" stroke="#FF5F00" stroke-width="2" stroke-linejoin="round"/>
</svg>
