<svg width="599" height="884" viewBox="0 0 599 884" fill="none" xmlns="http://www.w3.org/2000/svg">
<path d="M572.5 736H572.18C586.38 736 597.89 747.51 597.89 761.71V884M381.84 736L85.7 736.28C71.45 736.28 59.9 720.78 59.9 701.66V530.94M571.97 736H482.94M253.79 179.91L262.97 190.39L282.14 165.11M120.32 496.18V522.9C120.32 527.56 116.54 531.34 111.88 531.34H9.44C4.78 531.34 1 527.56 1 522.9V385.75C1 381.09 4.78 377.31 9.44 377.31H23.85M120.32 430.29V485.65M97.47 377.31H111.88C116.54 377.31 120.32 381.09 120.32 385.75V420.59M62.84 418.5H97.75M62.84 500.69H97.75M23.18 415.78L31.65 425.45L44.52 408.25M62.84 459.39H81.72M23.18 456.66L31.65 466.34L44.52 449.13M23.18 497.55L31.65 507.22L44.52 490.02M149.67 480.61L156.53 487.48L149.44 494.57L142.57 487.71M59.91 350.59V325.55C59.91 306.43 71.46 290.93 85.71 290.93L245.32 292C258.61 292.04 269.4 281.29 269.4 268V225.54M267.26 127.6V0M474.46 736.04V501.85H367.8V736.04M474.46 736.04H367.8M474.46 736.04H546.22V606.94H474.46M474.46 736.04V606.94M367.8 736.04V606.94M367.8 736.04H296.04V606.94H367.8M394.25 570.83H449.75M394.25 590.78H449.75M394.25 610.72H449.75M394.25 630.67H449.75M394.25 650.61H449.75M394.25 670.56H449.75M367.8 606.94H284.67M346.04 630.67H317.79M346.04 650.61H317.79M346.04 670.56H317.79M346.04 690.51H317.79M346.04 710.45H317.79M394.25 530.94H449.75M394.25 550.89H449.75M474.46 606.94H557.59M496.22 630.67H524.47M496.22 650.61H524.47M496.22 670.56H524.47M496.22 690.51H524.47M496.22 710.45H524.47M356.43 501.85H485.83M419.22 502.04V452.19M419.01 467.82L426.33 457.75M419.29 467.68L411.97 457.61M456.27 502.42V451.44M456.1 467.65L461.88 459.71M456.33 467.54L450.55 459.6M455.72 474.04C450.22 474.04 446.45 467.38 446.45 460.55C446.45 453.72 456 443.11 456 443.11C456 443.11 465.55 453.72 465.55 460.55C465.55 467.38 461.77 474.04 456.28 474.04M380.67 502.42V451.44M380.51 467.65L386.28 459.71M380.73 467.54L374.95 459.6M380.12 474.04C374.62 474.04 370.85 467.38 370.85 460.55C370.85 453.72 380.4 443.11 380.4 443.11C380.4 443.11 389.95 453.72 389.95 460.55C389.95 467.38 386.17 474.04 380.68 474.04M500.23 606.04V556.19M500.44 571.82L493.12 561.75M500.16 571.68L507.48 561.61M538.78 606.42V555.44M538.95 571.66L533.17 563.72M538.72 571.54L544.5 563.6M539.33 578.04C544.83 578.04 548.6 571.38 548.6 564.55C548.6 557.72 539.05 547.11 539.05 547.11C539.05 547.11 529.5 557.72 529.5 564.55C529.5 571.38 533.28 578.04 538.77 578.04M343.01 606.04V556.19M342.8 571.82L350.12 561.75M343.08 571.68L335.76 561.61M304.46 606.42V555.44M304.29 571.66L310.07 563.72M304.51 571.54L298.74 563.6M303.9 578.04C298.4 578.04 294.63 571.38 294.63 564.55C294.63 557.72 304.18 547.11 304.18 547.11C304.18 547.11 313.73 557.72 313.73 564.55C313.73 571.38 309.95 578.04 304.46 578.04M309.28 165.19C305.51 163.26 303.71 158.93 305.02 154.9C306.5 150.31 305.31 145.34 301.9 141.93C298.49 138.52 293.52 137.32 288.93 138.81C284.9 140.11 280.57 138.32 278.64 134.55C276.45 130.26 272.09 127.59 267.26 127.59C262.43 127.59 258.08 130.26 255.88 134.55C253.95 138.32 249.62 140.12 245.59 138.81C241 137.33 236.03 138.52 232.62 141.93C229.21 145.34 228.01 150.31 229.5 154.9C230.8 158.93 229.01 163.26 225.24 165.19C220.95 167.38 218.28 171.74 218.28 176.57C218.28 181.4 220.95 185.75 225.24 187.95C229.01 189.88 230.81 194.21 229.5 198.24C228.02 202.83 229.21 207.8 232.62 211.21C236.03 214.62 241 215.82 245.59 214.33C249.62 213.03 253.95 214.82 255.88 218.59C258.07 222.88 262.43 225.55 267.26 225.55C272.09 225.55 276.44 222.88 278.64 218.59C280.57 214.82 284.9 213.02 288.93 214.33C293.52 215.81 298.49 214.62 301.9 211.21C305.31 207.8 306.51 202.83 305.02 198.24C303.72 194.21 305.51 189.88 309.28 187.95C313.57 185.76 316.24 181.4 316.24 176.57C316.24 171.74 313.57 167.39 309.28 165.19ZM296.66 176.57C296.66 192.807 283.497 205.97 267.26 205.97C251.023 205.97 237.86 192.807 237.86 176.57C237.86 160.333 251.023 147.17 267.26 147.17C283.497 147.17 296.66 160.333 296.66 176.57ZM90.76 366.32H81.04C78.62 366.32 76.49 364.69 75.88 362.34C74.12 355.58 67.97 350.59 60.66 350.59C53.35 350.59 47.2 355.58 45.44 362.34C44.83 364.68 42.71 366.32 40.28 366.32H30.56C26.85 366.32 23.85 369.32 23.85 373.03V380.76C23.85 384.47 26.85 387.47 30.56 387.47H90.76C94.47 387.47 97.47 384.47 97.47 380.76V373.03C97.47 369.32 94.46 366.32 90.76 366.32ZM65.68 366.32C65.68 363.55 63.43 361.3 60.66 361.3C57.89 361.3 55.64 363.55 55.64 366.32C55.64 369.09 57.89 371.34 60.66 371.34C63.43 371.34 65.68 369.09 65.68 366.32ZM183.53 517.09L179.04 521.58C177.18 523.44 174.16 523.44 172.3 521.58L148.02 497.29C147.66 496.93 147.66 496.35 148.02 495.99L157.95 486.06C158.31 485.7 158.89 485.7 159.25 486.06L183.53 510.35C185.39 512.21 185.39 515.23 183.53 517.09ZM157.34 457.97C157.34 478.631 140.591 495.38 119.93 495.38C99.269 495.38 82.52 478.631 82.52 457.97C82.52 437.309 99.269 420.56 119.93 420.56C140.591 420.56 157.34 437.309 157.34 457.97ZM119.93 485.65C112.54 485.65 105.59 482.77 100.36 477.54C89.57 466.75 89.57 449.19 100.36 438.4C105.59 433.17 112.54 430.29 119.93 430.29C127.32 430.29 134.27 433.17 139.5 438.4C150.29 449.19 150.29 466.75 139.5 477.54C134.27 482.77 127.32 485.65 119.93 485.65ZM407.69 694.99H434.57V736.04H407.69V694.99ZM437.14 455.04C437.14 464.976 429.086 473.03 419.15 473.03C409.214 473.03 401.16 464.976 401.16 455.04C401.16 445.104 409.214 437.05 419.15 437.05C429.086 437.05 437.14 445.104 437.14 455.04ZM518.29 559.04C518.29 568.976 510.236 577.03 500.3 577.03C490.364 577.03 482.31 568.976 482.31 559.04C482.31 549.104 490.364 541.05 500.3 541.05C510.236 541.05 518.29 549.104 518.29 559.04ZM360.93 559.04C360.93 568.976 352.876 577.03 342.94 577.03C333.004 577.03 324.95 568.976 324.95 559.04C324.95 549.104 333.004 541.05 342.94 541.05C352.876 541.05 360.93 549.104 360.93 559.04Z" stroke="#FF5F00" stroke-width="2" stroke-linejoin="round"/>
</svg>
