<svg width="48" height="48" viewBox="0 0 48 48" fill="none" xmlns="http://www.w3.org/2000/svg">
<g clip-path="url(#clip0_2235_4775)">
<path d="M17.5323 25.4966L21.9382 30.5263L31.1464 18.3873M44.1754 18.5372C42.3617 17.6086 41.5009 15.5339 42.1296 13.5945C42.8405 11.3892 42.2699 9.00491 40.6304 7.37025C38.9909 5.73075 36.6066 5.16007 34.4061 5.87101C32.4716 6.49972 30.392 5.63886 29.4682 3.82526C28.4139 1.76501 26.3198 0.483398 24.0081 0.483398C21.6964 0.483398 19.5974 1.76501 18.5431 3.82526C17.6145 5.63886 15.5398 6.49972 13.6053 5.87101C11.3999 5.16007 9.01565 5.73075 7.38099 7.37025C5.7415 9.00975 5.17082 11.394 5.88175 13.5945C6.51046 15.529 5.64961 17.6086 3.836 18.5372C1.77575 19.5915 0.494141 21.6856 0.494141 23.9974C0.494141 26.3091 1.77575 28.408 3.836 29.4575C5.64961 30.3861 6.51046 32.4608 5.88175 34.4002C5.17082 36.6055 5.7415 38.9898 7.38099 40.6245C9.02049 42.264 11.4048 42.8346 13.6053 42.1237C15.5398 41.495 17.6194 42.3558 18.5431 44.1694C19.5974 46.2297 21.6915 47.5113 24.0081 47.5113C26.3247 47.5113 28.4188 46.2297 29.4682 44.1694C30.3968 42.3558 32.4716 41.495 34.4061 42.1237C36.6114 42.8346 38.9957 42.264 40.6304 40.6245C42.2699 38.985 42.8405 36.6007 42.1296 34.4002C41.5009 32.4657 42.3617 30.3861 44.1754 29.4575C46.2356 28.4032 47.5172 26.3091 47.5172 23.9974C47.5172 21.6856 46.2356 19.5867 44.1754 18.5372ZM38.1207 24.0022C38.1207 31.7989 31.8003 38.1193 24.0037 38.1193C16.207 38.1193 9.88658 31.7989 9.88658 24.0022C9.88658 16.2056 16.207 9.88515 24.0037 9.88515C31.8003 9.88515 38.1207 16.2056 38.1207 24.0022Z" stroke="#FF5F00" stroke-width="2" stroke-linejoin="round"/>
</g>
<defs>
<clipPath id="clip0_2235_4775">
<rect width="48" height="48" fill="white"/>
</clipPath>
</defs>
</svg>
