<svg width="48" height="48" viewBox="0 0 48 48" fill="none" xmlns="http://www.w3.org/2000/svg">
<path d="M28.395 33.1185C35.6513 33.7502 41 35.9033 41 38.469C41 41.5246 33.3829 44 24 44C14.6171 44 7 41.5246 7 38.469C7 35.9033 12.3359 33.7502 19.5921 33.1185M24.0516 39.9774L33.1895 25.6793C37.5974 19.2329 37.7521 12.5286 32.8673 7.65512C27.9955 2.78163 20.0819 2.78163 15.21 7.65512C10.3381 12.5286 10.4799 19.2458 14.8878 25.6793L24.0258 39.9774H24.0516ZM30.1994 16.4351C30.1994 19.8316 27.4469 22.585 24.0516 22.585C20.6562 22.585 17.9037 19.8316 17.9037 16.4351C17.9037 13.0386 20.6562 10.2853 24.0516 10.2853C27.4469 10.2853 30.1994 13.0386 30.1994 16.4351Z" stroke="#FF5F00" stroke-width="2" stroke-linejoin="round"/>
</svg>
