<svg width="643" height="697" viewBox="0 0 643 697" fill="none" xmlns="http://www.w3.org/2000/svg">
<path d="M193.116 217.139L206.899 230.91H206.856L220.639 217.139M206.899 229.645V200.146M170.071 442.128L174.236 544.025M175.705 426.889C181.195 427.033 189.147 429.613 200.089 434.681C210.336 439.443 219.761 444.928 221.479 446.328C223.164 447.704 223.797 449.013 223.365 450.231C222.938 451.444 221.58 452.063 219.43 452.053C213.09 452.044 181.411 444.962 174.121 439.711M163.299 442.986L158.966 544.025M158.793 424.056C156.187 419.51 154.848 412.318 154.042 406.525C153.336 401.323 152.89 395.928 152.626 390.683C152.429 386.669 152.343 383.38 152.357 379.789C152.4 376.729 152.41 375.296 152.664 373.992C153.048 372.117 153.84 371.057 155.025 370.841C158.495 370.227 160.247 377.41 162.459 383.179C162.819 384.214 163.184 385.279 163.553 386.401C166.644 395.981 171.722 412.457 170.239 422.061M158.966 441.289C155.011 444.727 148.211 447.441 142.682 449.359C137.71 451.066 132.503 452.552 127.406 453.832C123.505 454.806 120.289 455.53 116.762 456.22C113.748 456.776 112.342 457.045 111.012 457.045C109.098 457.03 107.903 456.465 107.461 455.347C106.184 452.068 112.894 448.951 118.125 445.662C119.075 445.105 120.044 444.544 121.076 443.959C129.878 439.069 145.067 430.884 154.781 430.466M61.4708 466.289L64.6478 544.025M65.766 454.662C69.9509 454.772 76.0218 456.743 84.3723 460.607C92.1901 464.242 99.3792 468.428 100.689 469.492C101.976 470.543 102.46 471.54 102.129 472.47C101.803 473.396 100.766 473.865 99.1297 473.861C94.2921 473.856 70.1236 468.452 64.5614 464.443M56.3069 466.942L53.0003 544.025M52.8659 452.499C50.879 449.032 49.8568 443.542 49.2425 439.126C48.705 435.156 48.3643 431.042 48.1627 427.038C48.0139 423.974 47.9467 421.466 47.9563 418.728C47.9899 416.393 47.9947 415.3 48.1915 414.307C48.4842 412.879 49.0889 412.068 49.9912 411.905C52.6355 411.44 53.9745 416.916 55.6638 421.318C55.9421 422.109 56.2157 422.919 56.4988 423.777C58.8552 431.085 62.7329 443.657 61.6003 450.979M53.0002 465.642C49.9816 468.265 44.7937 470.336 40.5753 471.799C36.7839 473.098 32.8103 474.235 28.9181 475.213C25.9427 475.956 23.4903 476.507 20.798 477.035C18.4992 477.457 17.4241 477.663 16.4115 477.668C14.9478 477.658 14.0407 477.222 13.7 476.373C12.7258 473.87 17.8465 471.492 21.8346 468.984C22.5593 468.557 23.2983 468.131 24.0854 467.685C30.7994 463.954 42.3893 457.706 49.7992 457.39M206.904 188.374V161C206.904 147.745 217.548 137 230.803 137C286.948 137 436.333 137 617.989 137C631.244 137 641.998 126.255 641.998 113V0M206.904 242.682V259.46C206.904 269.682 198.611 277.968 188.379 277.968L82.4143 277.872L28.0543 278.289H19.5934C9.32319 278.289 1.00146 286.604 1.00146 296.865V524.951C1.00146 535.212 9.32319 543.526 19.5934 543.526H626.974C637.205 543.526 641.998 551.812 641.998 562.035V697M391.496 543.196H286.881V422.973M286.881 422.973H271.805L302.343 376.24H356.251L388.133 349.058C390.072 347.401 392.928 347.401 394.867 349.058L426.749 376.24H480.657L511.195 422.973H496.119M286.881 422.973L356.251 422.973V422.997L388.101 395.758C390.056 394.086 392.944 394.094 394.883 395.782L426.185 422.997V422.973L496.119 422.973M496.119 422.973V543.196H391.504M391.439 347.225V306.805H423.965C426.853 306.805 429.186 309.145 429.186 312.024V328.293C429.186 331.181 426.845 333.513 423.965 333.513H391.439M179.722 215.528C179.722 230.525 191.89 242.682 206.899 242.682C221.909 242.682 234.077 230.525 234.077 215.528C234.077 200.532 221.909 188.374 206.899 188.374C191.89 188.374 179.722 200.532 179.722 215.528ZM161.293 438.786C156.379 435.199 157.031 427.618 162.498 424.914C169.26 421.629 176.468 428.366 173.651 435.319C171.674 440.171 165.502 441.917 161.293 438.781V438.786ZM54.7759 463.739C51.023 461.001 51.5221 455.218 55.6974 453.156C60.8565 450.653 66.3563 455.788 64.2063 461.096C62.6994 464.798 57.9866 466.131 54.7759 463.739ZM410.538 442.572C410.538 453.187 401.93 461.793 391.311 461.793C380.692 461.793 372.084 453.187 372.084 442.572C372.084 431.957 380.692 423.351 391.311 423.351C401.93 423.351 410.538 431.957 410.538 442.572ZM372.397 484.971H410.216C411.013 484.971 411.664 485.622 411.664 486.418V543.196H370.949V486.418C370.949 485.622 371.601 484.971 372.397 484.971ZM302.19 437.2H317.105C317.905 437.2 318.553 437.848 318.553 438.648V470.519C318.553 471.318 317.905 471.966 317.105 471.966H302.19C301.39 471.966 300.742 471.318 300.742 470.519V438.648C300.742 437.848 301.39 437.2 302.19 437.2ZM340.926 437.2H355.841C356.641 437.2 357.289 437.848 357.289 438.648V470.519C357.289 471.318 356.641 471.966 355.841 471.966H340.926C340.126 471.966 339.478 471.318 339.478 470.519V438.648C339.478 437.848 340.126 437.2 340.926 437.2ZM302.19 484.399H317.105C317.905 484.399 318.553 485.048 318.553 485.847V517.718C318.553 518.518 317.905 519.166 317.105 519.166H302.19C301.39 519.166 300.742 518.518 300.742 517.718V485.847C300.742 485.048 301.39 484.399 302.19 484.399ZM340.926 484.399H355.841C356.641 484.399 357.289 485.048 357.289 485.847V517.718C357.289 518.518 356.641 519.166 355.841 519.166H340.926C340.126 519.166 339.478 518.518 339.478 517.718V485.847C339.478 485.048 340.126 484.399 340.926 484.399ZM427.159 437.2H442.074C442.874 437.2 443.522 437.848 443.522 438.648V470.519C443.522 471.318 442.874 471.966 442.074 471.966H427.159C426.359 471.966 425.711 471.318 425.711 470.519V438.648C425.711 437.848 426.359 437.2 427.159 437.2ZM465.895 437.2H480.81C481.61 437.2 482.258 437.848 482.258 438.648V470.519C482.258 471.318 481.61 471.966 480.81 471.966H465.895C465.095 471.966 464.447 471.318 464.447 470.519V438.648C464.447 437.848 465.095 437.2 465.895 437.2ZM427.159 484.399H442.074C442.874 484.399 443.522 485.048 443.522 485.847V517.718C443.522 518.518 442.874 519.166 442.074 519.166H427.159C426.359 519.166 425.711 518.518 425.711 517.718V485.847C425.711 485.048 426.359 484.399 427.159 484.399ZM465.895 484.399H480.81C481.61 484.399 482.258 485.048 482.258 485.847V517.718C482.258 518.518 481.61 519.166 480.81 519.166H465.895C465.095 519.166 464.447 518.518 464.447 517.718V485.847C464.447 485.048 465.095 484.399 465.895 484.399Z" stroke="#FF5F00" stroke-width="2" stroke-linejoin="round"/>
</svg>
