<svg width="24" height="25" viewBox="0 0 24 25" fill="none" xmlns="http://www.w3.org/2000/svg">
<g clip-path="url(#clip0_2246_1442)">
<path fill-rule="evenodd" clip-rule="evenodd" d="M9.06564 9.89846C9.39948 9.6759 9.6 9.30122 9.6 8.9V4.1C9.6 2.11177 7.98823 0.5 6 0.5L1.2 0.5C0.537258 0.5 0 1.03726 0 1.7C0 13.6294 10.8706 24.5 22.8 24.5C23.4627 24.5 24 23.9627 24 23.3V18.5C24 16.5118 22.3882 14.9 20.4 14.9H15.6C15.1988 14.9 14.8241 15.1005 14.6015 15.4344L12.3151 18.864C9.82487 17.2538 7.6431 15.127 5.96489 12.6788L5.63602 12.1849L9.06564 9.89846ZM16.2422 17.3L20.4 17.3C21.0627 17.3 21.6 17.8373 21.6 18.5V22.0584C19.2753 21.8975 17.0066 21.2758 14.8905 20.2899L14.4049 20.056L16.2422 17.3ZM2.44161 2.90001H6C6.66274 2.90001 7.2 3.43727 7.2 4.10001L7.2 8.25779L4.44406 10.0951C3.32259 7.84215 2.61484 5.40352 2.44161 2.90001Z" fill="#0E2020"/>
</g>
<defs>
<clipPath id="clip0_2246_1442">
<rect width="24" height="24" fill="white" transform="translate(0 0.5)"/>
</clipPath>
</defs>
</svg>
