<svg width="29" height="22" viewBox="0 0 29 22" fill="none" xmlns="http://www.w3.org/2000/svg">
<path d="M11.7341 15.4203C11.7341 18.1333 9.48643 20.3327 6.71374 20.3327C3.94106 20.3327 1.69336 18.1333 1.69336 15.4203C1.69336 12.7073 3.94106 10.5079 6.71374 10.5079C9.48643 10.5079 11.7341 12.7073 11.7341 15.4203Z" fill="#FF5F00"/>
<path d="M27.0267 15.4203C27.0267 18.1333 24.779 20.3327 22.0063 20.3327C19.2336 20.3327 16.9859 18.1333 16.9859 15.4203C16.9859 12.7073 19.2336 10.5079 22.0063 10.5079C24.779 10.5079 27.0267 12.7073 27.0267 15.4203Z" fill="#FF5F00"/>
<path d="M1.69385 13.9471L9.72635 1.66602M16.9864 13.9471L25.0189 1.66602M11.7341 15.4203C11.7341 18.1333 9.48643 20.3327 6.71374 20.3327C3.94106 20.3327 1.69336 18.1333 1.69336 15.4203C1.69336 12.7073 3.94106 10.5079 6.71374 10.5079C9.48643 10.5079 11.7341 12.7073 11.7341 15.4203ZM27.0267 15.4203C27.0267 18.1333 24.779 20.3327 22.0063 20.3327C19.2336 20.3327 16.9859 18.1333 16.9859 15.4203C16.9859 12.7073 19.2336 10.5079 22.0063 10.5079C24.779 10.5079 27.0267 12.7073 27.0267 15.4203Z" stroke="#FF5F00" stroke-width="2" stroke-linecap="round"/>
</svg>
