<svg width="583" height="708" viewBox="0 0 583 708" fill="none" xmlns="http://www.w3.org/2000/svg">
<path d="M382.262 290.369L382.261 291.369H382.262V290.369ZM500.771 451.927H501.771C501.771 451.66 501.663 451.403 501.473 451.216L500.771 451.927ZM500.771 587.293V588.293C501.323 588.293 501.771 587.845 501.771 587.293H500.771ZM309.892 587.293H308.892C308.892 587.845 309.339 588.293 309.892 588.293V587.293ZM309.892 451.927L309.189 451.216C308.999 451.404 308.892 451.66 308.892 451.927H309.892ZM478.428 392.309H479.428C479.428 391.757 478.98 391.309 478.428 391.309V392.309ZM478.428 474.349L479.133 475.058C479.322 474.87 479.428 474.615 479.428 474.349H478.428ZM405.331 547.159L404.625 547.867C405.016 548.256 405.647 548.256 406.037 547.867L405.331 547.159ZM332.223 474.349H331.223C331.223 474.615 331.328 474.87 331.517 475.058L332.223 474.349ZM332.223 392.309V391.309C331.67 391.309 331.223 391.757 331.223 392.309H332.223ZM333.104 430.395C333.497 430.006 333.501 429.373 333.112 428.98C332.724 428.588 332.091 428.584 331.698 428.972L333.104 430.395ZM479.273 429.293C478.88 428.905 478.247 428.909 477.859 429.302C477.471 429.695 477.475 430.328 477.868 430.716L479.273 429.293ZM178.273 208.115H177.273C177.273 208.519 177.516 208.884 177.89 209.038C178.263 209.193 178.694 209.108 178.98 208.822L178.273 208.115ZM193.108 193.282L193.815 193.989C194.003 193.801 194.108 193.547 194.108 193.282H193.108ZM193.108 193.222V192.222C192.556 192.222 192.108 192.67 192.108 193.222H193.108ZM296.46 193.222V194.222C297.012 194.222 297.46 193.774 297.46 193.222H296.46ZM296.46 147.236H297.46C297.46 146.684 297.012 146.236 296.46 146.236V147.236ZM178.189 147.236V146.236C177.637 146.236 177.189 146.684 177.189 147.236H178.189ZM215.131 341.154L214.424 340.447C214.138 340.732 214.052 341.163 214.207 341.536C214.362 341.91 214.726 342.154 215.131 342.154V341.154ZM228.482 327.805L229.189 328.513L228.482 327.805ZM230.231 327.805L229.524 328.513L230.231 327.805ZM275.138 372.704L275.845 371.996L275.138 372.704ZM275.138 381.771L274.431 381.064L275.138 381.771ZM269.106 387.801L269.813 388.509L269.106 387.801ZM260.054 387.801L260.761 387.094L260.054 387.801ZM215.148 342.903L214.441 343.61L215.148 342.903ZM215.148 341.154L215.855 341.861C216.141 341.575 216.226 341.145 216.072 340.771C215.917 340.397 215.552 340.154 215.148 340.154V341.154ZM226.587 329.706L227.294 330.413C227.482 330.225 227.587 329.971 227.587 329.706C227.587 329.44 227.482 329.186 227.294 328.998L226.587 329.706ZM217.046 339.245L216.339 339.953C216.729 340.343 217.362 340.343 217.753 339.953L217.046 339.245ZM228.383 291.214L382.261 291.369L382.263 289.369L228.385 289.214L228.383 291.214ZM382.262 291.369C399.708 291.369 413.85 277.23 413.85 259.787H411.85C411.85 276.125 398.604 289.369 382.262 289.369V291.369ZM413.85 259.787V0H411.85V259.787H413.85ZM309.892 526.342H31.6948V528.342H309.892V526.342ZM31.6948 526.342C15.2934 526.342 2 513.05 2 496.652H0C0 514.155 14.1892 528.342 31.6948 528.342V526.342ZM2 321.593C2 305.195 15.2934 291.904 31.6948 291.904V289.904C14.1892 289.904 0 304.09 0 321.593H2ZM31.6948 291.904H126.223V289.904H31.6948V291.904ZM582.505 708V557.924H580.505V708H582.505ZM582.505 557.924C582.505 540.48 568.364 526.342 550.917 526.342V528.342C567.259 528.342 580.505 541.585 580.505 557.924H582.505ZM353.519 414.696H455.966V412.696H353.519V414.696ZM353.519 427.519H455.966V425.519H353.519V427.519ZM353.519 440.33H455.966V438.33H353.519V440.33ZM353.519 453.153H455.966V451.153H353.519V453.153ZM353.519 465.976H455.966V463.976H353.519V465.976ZM353.519 478.799H403.582V476.799H353.519V478.799ZM499.771 451.927V587.293H501.771V451.927H499.771ZM500.771 586.293H309.892V588.293H500.771V586.293ZM310.892 587.293V451.927H308.892V587.293H310.892ZM477.428 392.309V474.349H479.428V392.309H477.428ZM477.722 473.641L404.625 546.45L406.037 547.867L479.133 475.058L477.722 473.641ZM406.037 546.45L332.928 473.641L331.517 475.058L404.625 547.867L406.037 546.45ZM333.223 474.349V392.309H331.223V474.349H333.223ZM332.223 393.309H478.428V391.309H332.223V393.309ZM309.185 452.635L404.625 547.867L406.037 546.451L310.598 451.219L309.185 452.635ZM406.037 547.867L501.477 452.635L500.064 451.219L404.625 546.451L406.037 547.867ZM331.698 428.972L309.189 451.216L310.594 452.638L333.104 430.395L331.698 428.972ZM501.473 451.216L479.273 429.293L477.868 430.716L500.068 452.639L501.473 451.216ZM310.549 588.046L382.92 524.824L381.604 523.317L309.234 586.539L310.549 588.046ZM426.901 524.827L500.117 588.049L501.424 586.536L428.209 523.314L426.901 524.827ZM177.273 188.845V208.115H179.273V188.845H177.273ZM178.98 208.822L193.815 193.989L192.401 192.574L177.565 207.407L178.98 208.822ZM194.108 193.282V193.222H192.108V193.282H194.108ZM193.108 194.222H296.46V192.222H193.108V194.222ZM297.46 193.222V147.236H295.46V193.222H297.46ZM296.46 146.236H178.189V148.236H296.46V146.236ZM177.189 147.236V193.222H179.189V147.236H177.189ZM196.582 165.317H280.696V163.317H196.582V165.317ZM196.582 175.178H222.209V173.178H196.582V175.178ZM215.838 341.861L229.189 328.513L227.775 327.098L214.424 340.447L215.838 341.861ZM229.189 328.513C229.282 328.419 229.431 328.42 229.524 328.513L230.938 327.098C230.056 326.215 228.64 326.233 227.775 327.098L229.189 328.513ZM229.524 328.513L274.431 373.411L275.845 371.996L230.938 327.098L229.524 328.513ZM274.431 373.411C276.54 375.519 276.546 378.948 274.431 381.064L275.845 382.478C278.743 379.58 278.733 374.884 275.845 371.996L274.431 373.411ZM274.431 381.064L268.399 387.094L269.813 388.509L275.845 382.478L274.431 381.064ZM268.399 387.094C266.291 389.202 262.869 389.202 260.761 387.094L259.347 388.509C262.236 391.397 266.924 391.397 269.813 388.509L268.399 387.094ZM260.761 387.094L215.855 342.196L214.441 343.61L259.347 388.509L260.761 387.094ZM215.855 342.196C215.761 342.103 215.762 341.954 215.855 341.861L214.441 340.447C213.558 341.329 213.575 342.745 214.441 343.61L215.855 342.196ZM215.148 340.154H215.131V342.154H215.148V340.154ZM216.648 321.182L225.88 330.413L227.294 328.998L218.062 319.768L216.648 321.182ZM225.88 328.998L216.339 338.538L217.753 339.953L227.294 330.413L225.88 328.998ZM217.753 338.538L208.52 329.308L207.106 330.722L216.339 339.953L217.753 338.538ZM226.682 290.048C226.682 317.271 204.609 339.34 177.38 339.34V341.34C205.713 341.34 228.682 318.376 228.682 290.048H226.682ZM177.38 339.34C150.152 339.34 128.079 317.271 128.079 290.048H126.079C126.079 318.376 149.047 341.34 177.38 341.34V339.34ZM128.079 290.048C128.079 262.824 150.152 240.755 177.38 240.755V238.755C149.047 238.755 126.079 261.72 126.079 290.048H128.079ZM177.38 240.755C204.609 240.755 226.682 262.824 226.682 290.048H228.682C228.682 261.72 205.713 238.755 177.38 238.755V240.755ZM121.832 320.273C121.832 325.014 117.985 328.86 113.243 328.86V330.86C119.089 330.86 123.832 326.119 123.832 320.273H121.832ZM113.243 328.86C108.5 328.86 104.653 325.014 104.653 320.273H102.653C102.653 326.119 107.396 330.86 113.243 330.86V328.86ZM104.653 320.273C104.653 315.532 108.5 311.685 113.243 311.685V309.685C107.396 309.685 102.653 314.427 102.653 320.273H104.653ZM113.243 311.685C117.985 311.685 121.832 315.532 121.832 320.273H123.832C123.832 314.427 119.089 309.685 113.243 309.685V311.685ZM164.59 279.14C164.59 283.881 160.743 287.727 156.001 287.727V289.727C161.847 289.727 166.59 284.986 166.59 279.14H164.59ZM156.001 287.727C151.259 287.727 147.412 283.881 147.412 279.14H145.412C145.412 284.986 150.155 289.727 156.001 289.727V287.727ZM147.412 279.14C147.412 274.399 151.259 270.552 156.001 270.552V268.552C150.155 268.552 145.412 273.294 145.412 279.14H147.412ZM156.001 270.552C160.743 270.552 164.59 274.399 164.59 279.14H166.59C166.59 273.294 161.847 268.552 156.001 268.552V270.552ZM207.349 293.89C207.349 298.631 203.502 302.477 198.76 302.477V304.477C204.606 304.477 209.349 299.735 209.349 293.89H207.349ZM198.76 302.477C194.017 302.477 190.17 298.631 190.17 293.89H188.17C188.17 299.735 192.913 304.477 198.76 304.477V302.477ZM190.17 293.89C190.17 289.149 194.017 285.302 198.76 285.302V283.302C192.913 283.302 188.17 288.044 188.17 293.89H190.17ZM198.76 285.302C203.502 285.302 207.349 289.149 207.349 293.89H209.349C209.349 288.044 204.606 283.302 198.76 283.302V285.302ZM250.107 222.769C250.107 227.51 246.26 231.357 241.518 231.357V233.357C247.365 233.357 252.107 228.615 252.107 222.769H250.107ZM241.518 231.357C236.776 231.357 232.929 227.51 232.929 222.769H230.929C230.929 228.615 235.672 233.357 241.518 233.357V231.357ZM232.929 222.769C232.929 218.028 236.776 214.182 241.518 214.182V212.182C235.672 212.182 230.929 216.924 230.929 222.769H232.929ZM241.518 214.182C246.26 214.182 250.107 218.028 250.107 222.769H252.107C252.107 216.924 247.365 212.182 241.518 212.182V214.182ZM148.407 285.045L119.438 312.915L120.824 314.356L149.794 286.486L148.407 285.045ZM235.712 230.45L202.828 285.167L204.542 286.197L237.426 231.48L235.712 230.45ZM190.031 289.816L165.38 281.323L164.729 283.214L189.38 291.707L190.031 289.816ZM550.917 526.342H501.176V528.342H550.917V526.342ZM2 496.652V409.123H0V496.652H2ZM2 409.123V321.593H0V409.123H2Z" fill="#FF5F00"/>
</svg>
