<svg width="583" height="838" viewBox="0 0 583 838" fill="none" xmlns="http://www.w3.org/2000/svg">
<path d="M382.262 351.369L382.261 352.369H382.262V351.369ZM500.771 512.927H501.771C501.771 512.66 501.663 512.403 501.473 512.216L500.771 512.927ZM500.771 648.293V649.293C501.323 649.293 501.771 648.845 501.771 648.293H500.771ZM309.892 648.293H308.892C308.892 648.845 309.339 649.293 309.892 649.293V648.293ZM309.892 512.927L309.189 512.216C308.999 512.404 308.892 512.66 308.892 512.927H309.892ZM478.428 453.309H479.428C479.428 452.757 478.98 452.309 478.428 452.309V453.309ZM478.428 535.349L479.133 536.058C479.322 535.87 479.428 535.615 479.428 535.349H478.428ZM405.331 608.159L404.625 608.867C405.016 609.256 405.647 609.256 406.037 608.867L405.331 608.159ZM332.223 535.349H331.223C331.223 535.615 331.328 535.87 331.517 536.058L332.223 535.349ZM332.223 453.309V452.309C331.67 452.309 331.223 452.757 331.223 453.309H332.223ZM333.104 491.395C333.497 491.006 333.501 490.373 333.112 489.98C332.724 489.588 332.091 489.584 331.698 489.972L333.104 491.395ZM479.273 490.293C478.88 489.905 478.247 489.909 477.859 490.302C477.471 490.695 477.475 491.328 477.868 491.716L479.273 490.293ZM178.273 269.115H177.273C177.273 269.519 177.516 269.884 177.89 270.038C178.263 270.193 178.694 270.108 178.98 269.822L178.273 269.115ZM193.108 254.281L193.815 254.989C194.003 254.801 194.108 254.547 194.108 254.281H193.108ZM193.108 254.222V253.222C192.556 253.222 192.108 253.67 192.108 254.222H193.108ZM296.46 254.222V255.222C297.012 255.222 297.46 254.774 297.46 254.222H296.46ZM296.46 208.236H297.46C297.46 207.684 297.012 207.236 296.46 207.236V208.236ZM178.189 208.236V207.236C177.637 207.236 177.189 207.684 177.189 208.236H178.189ZM215.131 402.154L214.424 401.447C214.138 401.732 214.052 402.163 214.207 402.536C214.362 402.91 214.726 403.154 215.131 403.154V402.154ZM228.482 388.805L229.189 389.513L228.482 388.805ZM230.231 388.805L229.524 389.513L230.231 388.805ZM275.138 433.704L275.845 432.996L275.138 433.704ZM275.138 442.771L274.431 442.064L275.138 442.771ZM269.106 448.801L269.813 449.509L269.106 448.801ZM260.054 448.801L260.761 448.094L260.054 448.801ZM215.148 403.903L214.441 404.61L215.148 403.903ZM215.148 402.154L215.855 402.861C216.141 402.575 216.226 402.145 216.072 401.771C215.917 401.397 215.552 401.154 215.148 401.154V402.154ZM226.587 390.706L227.294 391.413C227.482 391.225 227.587 390.971 227.587 390.706C227.587 390.44 227.482 390.186 227.294 389.998L226.587 390.706ZM217.046 400.245L216.339 400.953C216.729 401.343 217.362 401.343 217.753 400.953L217.046 400.245ZM228.383 352.214L382.261 352.369L382.263 350.369L228.385 350.214L228.383 352.214ZM382.262 352.369C399.708 352.369 413.85 338.23 413.85 320.787H411.85C411.85 337.125 398.604 350.369 382.262 350.369V352.369ZM413.85 320.787V0H411.85V320.787H413.85ZM309.892 587.342H31.6948V589.342H309.892V587.342ZM31.6948 587.342C15.2934 587.342 2 574.05 2 557.652H0C0 575.155 14.1892 589.342 31.6948 589.342V587.342ZM2 382.593C2 366.195 15.2934 352.904 31.6948 352.904V350.904C14.1892 350.904 0 365.09 0 382.593H2ZM31.6948 352.904H126.223V350.904H31.6948V352.904ZM582.505 838V618.924H580.505V838H582.505ZM582.505 618.924C582.505 601.48 568.364 587.342 550.917 587.342V589.342C567.259 589.342 580.505 602.585 580.505 618.924H582.505ZM353.519 475.696H455.966V473.696H353.519V475.696ZM353.519 488.519H455.966V486.519H353.519V488.519ZM353.519 501.33H455.966V499.33H353.519V501.33ZM353.519 514.153H455.966V512.153H353.519V514.153ZM353.519 526.976H455.966V524.976H353.519V526.976ZM353.519 539.799H403.582V537.799H353.519V539.799ZM499.771 512.927V648.293H501.771V512.927H499.771ZM500.771 647.293H309.892V649.293H500.771V647.293ZM310.892 648.293V512.927H308.892V648.293H310.892ZM477.428 453.309V535.349H479.428V453.309H477.428ZM477.722 534.641L404.625 607.45L406.037 608.867L479.133 536.058L477.722 534.641ZM406.037 607.45L332.928 534.641L331.517 536.058L404.625 608.867L406.037 607.45ZM333.223 535.349V453.309H331.223V535.349H333.223ZM332.223 454.309H478.428V452.309H332.223V454.309ZM309.185 513.635L404.625 608.867L406.037 607.451L310.598 512.219L309.185 513.635ZM406.037 608.867L501.477 513.635L500.064 512.219L404.625 607.451L406.037 608.867ZM331.698 489.972L309.189 512.216L310.594 513.638L333.104 491.395L331.698 489.972ZM501.473 512.216L479.273 490.293L477.868 491.716L500.068 513.639L501.473 512.216ZM310.549 649.046L382.92 585.824L381.604 584.317L309.234 647.539L310.549 649.046ZM426.901 585.827L500.117 649.049L501.424 647.536L428.209 584.314L426.901 585.827ZM177.273 249.845V269.115H179.273V249.845H177.273ZM178.98 269.822L193.815 254.989L192.401 253.574L177.565 268.407L178.98 269.822ZM194.108 254.281V254.222H192.108V254.281H194.108ZM193.108 255.222H296.46V253.222H193.108V255.222ZM297.46 254.222V208.236H295.46V254.222H297.46ZM296.46 207.236H178.189V209.236H296.46V207.236ZM177.189 208.236V254.222H179.189V208.236H177.189ZM196.582 226.317H280.696V224.317H196.582V226.317ZM196.582 236.178H222.209V234.178H196.582V236.178ZM215.838 402.861L229.189 389.513L227.775 388.098L214.424 401.447L215.838 402.861ZM229.189 389.513C229.282 389.419 229.431 389.42 229.524 389.513L230.938 388.098C230.056 387.215 228.64 387.233 227.775 388.098L229.189 389.513ZM229.524 389.513L274.431 434.411L275.845 432.996L230.938 388.098L229.524 389.513ZM274.431 434.411C276.54 436.519 276.546 439.948 274.431 442.064L275.845 443.478C278.743 440.58 278.733 435.884 275.845 432.996L274.431 434.411ZM274.431 442.064L268.399 448.094L269.813 449.509L275.845 443.478L274.431 442.064ZM268.399 448.094C266.291 450.202 262.869 450.202 260.761 448.094L259.347 449.509C262.236 452.397 266.924 452.397 269.813 449.509L268.399 448.094ZM260.761 448.094L215.855 403.196L214.441 404.61L259.347 449.509L260.761 448.094ZM215.855 403.196C215.761 403.103 215.762 402.954 215.855 402.861L214.441 401.447C213.558 402.329 213.575 403.745 214.441 404.61L215.855 403.196ZM215.148 401.154H215.131V403.154H215.148V401.154ZM216.648 382.182L225.88 391.413L227.294 389.998L218.062 380.768L216.648 382.182ZM225.88 389.998L216.339 399.538L217.753 400.953L227.294 391.413L225.88 389.998ZM217.753 399.538L208.52 390.308L207.106 391.722L216.339 400.953L217.753 399.538ZM226.682 351.048C226.682 378.271 204.609 400.34 177.38 400.34V402.34C205.713 402.34 228.682 379.376 228.682 351.048H226.682ZM177.38 400.34C150.152 400.34 128.079 378.271 128.079 351.048H126.079C126.079 379.376 149.047 402.34 177.38 402.34V400.34ZM128.079 351.048C128.079 323.824 150.152 301.755 177.38 301.755V299.755C149.047 299.755 126.079 322.72 126.079 351.048H128.079ZM177.38 301.755C204.609 301.755 226.682 323.824 226.682 351.048H228.682C228.682 322.72 205.713 299.755 177.38 299.755V301.755ZM121.832 381.273C121.832 386.014 117.985 389.86 113.243 389.86V391.86C119.089 391.86 123.832 387.119 123.832 381.273H121.832ZM113.243 389.86C108.5 389.86 104.653 386.014 104.653 381.273H102.653C102.653 387.119 107.396 391.86 113.243 391.86V389.86ZM104.653 381.273C104.653 376.532 108.5 372.685 113.243 372.685V370.685C107.396 370.685 102.653 375.427 102.653 381.273H104.653ZM113.243 372.685C117.985 372.685 121.832 376.532 121.832 381.273H123.832C123.832 375.427 119.089 370.685 113.243 370.685V372.685ZM164.59 340.14C164.59 344.881 160.743 348.727 156.001 348.727V350.727C161.847 350.727 166.59 345.986 166.59 340.14H164.59ZM156.001 348.727C151.259 348.727 147.412 344.881 147.412 340.14H145.412C145.412 345.986 150.155 350.727 156.001 350.727V348.727ZM147.412 340.14C147.412 335.399 151.259 331.552 156.001 331.552V329.552C150.155 329.552 145.412 334.294 145.412 340.14H147.412ZM156.001 331.552C160.743 331.552 164.59 335.399 164.59 340.14H166.59C166.59 334.294 161.847 329.552 156.001 329.552V331.552ZM207.349 354.89C207.349 359.631 203.502 363.477 198.76 363.477V365.477C204.606 365.477 209.349 360.735 209.349 354.89H207.349ZM198.76 363.477C194.017 363.477 190.17 359.631 190.17 354.89H188.17C188.17 360.735 192.913 365.477 198.76 365.477V363.477ZM190.17 354.89C190.17 350.149 194.017 346.302 198.76 346.302V344.302C192.913 344.302 188.17 349.044 188.17 354.89H190.17ZM198.76 346.302C203.502 346.302 207.349 350.149 207.349 354.89H209.349C209.349 349.044 204.606 344.302 198.76 344.302V346.302ZM250.107 283.769C250.107 288.51 246.26 292.357 241.518 292.357V294.357C247.365 294.357 252.107 289.615 252.107 283.769H250.107ZM241.518 292.357C236.776 292.357 232.929 288.51 232.929 283.769H230.929C230.929 289.615 235.672 294.357 241.518 294.357V292.357ZM232.929 283.769C232.929 279.028 236.776 275.182 241.518 275.182V273.182C235.672 273.182 230.929 277.924 230.929 283.769H232.929ZM241.518 275.182C246.26 275.182 250.107 279.028 250.107 283.769H252.107C252.107 277.924 247.365 273.182 241.518 273.182V275.182ZM148.407 346.045L119.438 373.915L120.824 375.356L149.794 347.486L148.407 346.045ZM235.712 291.45L202.828 346.167L204.542 347.197L237.426 292.48L235.712 291.45ZM190.031 350.816L165.38 342.323L164.729 344.214L189.38 352.707L190.031 350.816ZM550.917 587.342H501.176V589.342H550.917V587.342ZM2 557.652V470.123H0V557.652H2ZM2 470.123V382.593H0V470.123H2Z" fill="#FF5F00"/>
</svg>
