<svg width="434" height="611" viewBox="0 0 434 611" fill="none" xmlns="http://www.w3.org/2000/svg">
<path d="M412.353 124.045H425.008C429.111 124.045 432.428 127.363 432.428 131.466V252.007C432.428 256.111 429.111 259.428 425.008 259.428H380H334.992C330.889 259.428 327.572 256.111 327.572 252.007V131.466C327.572 127.363 330.889 124.045 334.992 124.045H347.647M381.918 160.253H412.604M381.918 232.48H412.604M347.065 157.863L354.501 166.353L365.82 151.244M381.918 196.194H412.604M347.065 193.788L354.501 202.294L365.82 187.169M347.065 229.729L354.501 238.235L365.82 223.11M380 0V101M379 260V463C379 476.255 368.255 487 355 487H25C11.7452 487 1 497.745 1 511V611M133.953 380.319L159.754 371.715V300.484L133.953 278.959M133.953 380.319V278.959M133.953 380.319L133.953 487.041M133.953 380.319L208.515 355.476V487.041H133.953M133.953 278.959L133.953 487.041M133.953 278.959L59.0008 308.934V487.041L133.953 487.041M119.191 312.407H85.8531M119.191 325.241H71.4512M119.191 338.075H71.4512M119.191 350.9H71.4512M119.191 363.734H71.4512M119.191 376.568H71.4512M119.191 389.403H71.4512M119.191 402.237H71.4512M119.191 415.071H71.4512M119.191 427.896H71.4512M119.191 440.73H71.4512M119.191 453.564H71.4512M194.173 389.403H146.433M194.173 402.237H146.433M194.173 415.071H146.433M194.173 427.896H146.433M194.173 440.73H146.433M194.173 453.564H146.433M293.566 448.241L281.435 454.485L268.375 448.989M281.445 487.482V424.73M272.968 430.342L281.445 435.406L290.813 430.342M397.921 114.392C395.799 114.392 393.928 112.961 393.394 110.902C391.853 104.959 386.445 100.572 380.016 100.572C373.586 100.572 368.194 104.959 366.638 110.902C366.103 112.961 364.232 114.392 362.11 114.392H353.574C350.32 114.392 347.679 117.033 347.679 120.288V127.08C347.679 130.334 350.32 132.975 353.574 132.975H406.473C409.727 132.975 412.369 130.334 412.369 127.08V120.288C412.369 117.033 409.727 114.392 406.473 114.392H397.921ZM384.402 114.392C384.402 116.823 382.431 118.794 380 118.794C377.569 118.794 375.598 116.823 375.598 114.392C375.598 111.961 377.569 109.99 380 109.99C382.431 109.99 384.402 111.961 384.402 114.392ZM234.577 376.991V487.041H208.765V355.476L234.577 376.991ZM264.692 435.982C262.079 434.179 260.368 431.244 260.368 427.925C260.368 422.438 265.002 417.997 270.727 417.997C272.138 417.997 273.489 418.275 274.72 418.764C274.34 417.796 274.119 416.75 274.119 415.647C274.119 410.726 278.283 406.736 283.417 406.736C288.551 406.736 292.715 410.726 292.715 415.647C292.715 417.738 291.964 419.647 290.703 421.172C290.993 421.153 291.274 421.134 291.564 421.134C298.249 421.134 303.674 426.333 303.674 432.74C303.674 436.021 302.243 438.984 299.961 441.095C305.826 443.263 309.989 448.701 309.989 455.08C309.989 463.368 302.983 470.082 294.336 470.082C288.331 470.082 284.058 466.84 281.435 462.073C278.503 464.826 273.559 466.523 269.135 466.523C260.158 466.523 252.882 459.55 252.882 450.946C252.882 443.829 257.866 437.833 264.672 435.982H264.692Z" stroke="#FF5F00" stroke-width="2" stroke-linejoin="round"/>
</svg>
